<?xml version="1.0" encoding="utf-8"?>
<!-- Generator: Adobe Illustrator 22.1.0, SVG Export Plug-In . SVG Version: 6.00 Build 0)  -->
<svg version="1.1" id="Layer_1" xmlns="http://www.w3.org/2000/svg" xmlns:xlink="http://www.w3.org/1999/xlink" x="0px" y="0px"
	 viewBox="0 0 100 100" style="enable-background:new 0 0 100 100;" xml:space="preserve">
<style type="text/css">
	.st0{fill:#FFFFFF;}
</style>
<g>
	<polygon class="st0" points="18.5,45.1 16.3,41 14.1,45.1 10,47.3 14.1,49.6 16.3,53.7 18.5,49.6 22.6,47.3 	"/>
	<path class="st0" d="M42,40l5.2-9.5l9.5-5.2l-9.5-5.2L42,10.6l-5.2,9.5l-9.5,5.2l9.5,5.2L42,40z M40.5,23.8l1.5-2.7l1.5,2.7
		l2.7,1.5l-2.7,1.5L42,29.5l-1.5-2.7l-2.7-1.5L40.5,23.8z"/>
	<path class="st0" d="M89.2,45.1c-2-9.6-7.7-17.8-15.9-23.1c0,0,0,0,0,0c-1.5-0.9-3-1.8-4.6-2.5c-1-0.5-2.2-0.2-3,0.7
		c-0.7,0.9-0.8,2.1-0.1,3c7.3,10.4,7.5,24.1,0.6,34.7c-8.8,13.5-26.8,18.1-40.9,10.3c-1-0.5-2.2-0.4-3,0.5c-0.8,0.8-0.9,2.1-0.3,3
		c2.9,4.8,6.7,8.7,11.4,11.8c6,3.9,12.9,5.9,19.9,5.9c2.5,0,5.1-0.3,7.7-0.8c9.6-2,17.8-7.7,23.1-15.9
		C89.4,64.5,91.2,54.7,89.2,45.1z M79.9,69.9c-4.6,7.1-11.7,12-20,13.7c-8.3,1.8-16.7,0.2-23.8-4.4c-1.5-1-2.9-2.1-4.2-3.2
		c14.4,3.4,30.1-2.5,38.5-15.4c6.3-9.6,7.5-21.3,3.8-31.8c5.2,4.5,8.7,10.5,10.2,17.3C86.1,54.4,84.5,62.9,79.9,69.9z"/>
</g>
</svg>
