<?xml version="1.0" encoding="utf-8"?>
<!-- Generator: Adobe Illustrator 22.1.0, SVG Export Plug-In . SVG Version: 6.00 Build 0)  -->
<svg version="1.1" id="Layer_1" xmlns="http://www.w3.org/2000/svg" xmlns:xlink="http://www.w3.org/1999/xlink" x="0px" y="0px"
	 viewBox="0 0 100 100" style="enable-background:new 0 0 100 100;" xml:space="preserve">
<style type="text/css">
	.st0{fill:#FFFFFF;}
</style>
<g>
	<path class="st0" d="M75.4,23.4c-0.6-10.1-9-18.2-19.2-18.2c-9,0-16.7,6.1-18.8,14.9l4.9,1.1c1.5-6.5,7.2-11.1,13.9-11.1
		c7.9,0,14.3,6.4,14.3,14.3c0,2,1.2,3.1,2.4,3.4c5.3,1.4,9.1,6.4,9.1,11.9C82,46.5,76.6,52,69.9,52H26.4c-5.9,0-9.1-5.5-9.1-10.6
		c0-5.6,4.5-10,10.2-10c0.2,0,0.4,0,0.6,0c0.8,0,1.6-0.3,2.1-0.9c0.5-0.6,0.7-1.4,0.5-2.2c-0.2-0.7-0.3-1.3-0.3-2c0-3.3,2-6.1,5-7.3
		l-1.8-4.7c-5,2-8.2,6.7-8.2,12c0,0.1,0,0.1,0,0.2c-7.4,1-13.1,7.3-13.1,14.9c0,8.9,6.1,15.6,14.1,15.6h43.5
		C79.3,57,87,49.3,87,39.8C87,32.3,82.3,25.8,75.4,23.4z"/>
	<path class="st0" d="M66.6,42.5c0-7.8-6.4-14.2-14.2-14.2v5c5.1,0,9.2,4.1,9.2,9.2H66.6z"/>
	<rect x="29.6" y="72.8" transform="matrix(0.316 -0.9487 0.9487 0.316 -48.7677 82.9104)" class="st0" width="7" height="5"/>
	<rect x="33.1" y="62.3" transform="matrix(0.3161 -0.9487 0.9487 0.3161 -36.4896 79.0635)" class="st0" width="7" height="5"/>
	<rect x="42.2" y="77" transform="matrix(0.3161 -0.9487 0.9487 0.3161 -44.1568 97.6607)" class="st0" width="7" height="5"/>
	<rect x="45.6" y="66.5" transform="matrix(0.3161 -0.9487 0.9487 0.3161 -31.8771 93.8225)" class="st0" width="7" height="5"/>
	<rect x="38.7" y="87.4" transform="matrix(0.316 -0.9487 0.9487 0.316 -56.4362 101.5003)" class="st0" width="7" height="5"/>
	<rect x="60.9" y="62.4" transform="matrix(0.3148 -0.9492 0.9492 0.3148 -17.4573 105.5867)" class="st0" width="7" height="5"/>
	<rect x="57.4" y="72.8" transform="matrix(0.3148 -0.9492 0.9492 0.3148 -29.7396 109.4535)" class="st0" width="7" height="5"/>
	<rect x="54" y="83.3" transform="matrix(0.3148 -0.9492 0.9492 0.3148 -42.0223 113.3206)" class="st0" width="7" height="5"/>
</g>
</svg>
