<?xml version="1.0" encoding="utf-8"?>
<!-- Generator: Adobe Illustrator 22.1.0, SVG Export Plug-In . SVG Version: 6.00 Build 0)  -->
<svg version="1.1" id="Layer_1" xmlns="http://www.w3.org/2000/svg" xmlns:xlink="http://www.w3.org/1999/xlink" x="0px" y="0px"
	 viewBox="0 0 100 100" style="enable-background:new 0 0 100 100;" xml:space="preserve">
<style type="text/css">
	.st0{fill:#FFFFFF;}
</style>
<g>
	<path class="st0" d="M25.5,41.6c0-8.4,6.8-15.2,15.2-15.2c4.8,0,9.4,2.3,12.3,6.2l4-3c-3.8-5.2-9.9-8.2-16.3-8.2
		c-11.2,0-20.2,9.1-20.2,20.2c0,5,1.9,9.9,5.2,13.6l3.7-3.4C26.9,49,25.5,45.4,25.5,41.6z"/>
	<rect x="38.3" y="0.7" class="st0" width="5" height="8.8"/>
	<rect x="13.2" y="11.2" transform="matrix(0.7071 -0.7071 0.7071 0.7071 -6.413 15.6895)" class="st0" width="5" height="8.8"/>
	<rect x="1" y="38.2" class="st0" width="8.8" height="5"/>
	<rect x="11.4" y="63.2" transform="matrix(0.7071 -0.7071 0.7071 0.7071 -41.8238 30.4463)" class="st0" width="8.8" height="5"/>
	<rect x="61.4" y="13" transform="matrix(0.7071 -0.7071 0.7071 0.7071 8.344 51.1027)" class="st0" width="8.8" height="5"/>
	<path class="st0" d="M87.8,48.5C87.2,38.7,79,30.9,69,30.9c-8.8,0-16.3,6-18.3,14.6l4.9,1.1c1.4-6.3,7-10.7,13.4-10.7
		c7.6,0,13.8,6.2,13.8,13.8c0,1.9,1.2,3.1,2.4,3.3c5.1,1.4,8.8,6.2,8.8,11.5c0,6.5-5.2,11.8-11.7,11.8H40.1c-5.7,0-8.8-5.3-8.8-10.3
		c0-3.2,1.5-6.1,4.1-7.9c0.4-0.3,0.8-0.5,1.2-0.7c1.5-0.8,3.2-1.1,5-1c0.8,0.1,1.6-0.3,2.1-0.9c0.5-0.6,0.7-1.4,0.5-2.2
		C44.1,52.6,44,52,44,51.4c0-2.8,1.6-5.4,4-6.7l-2.3-4.4c-4.1,2.2-6.7,6.5-6.7,11.1c0,0,0,0.1,0,0.1c-1.6,0.2-3.1,0.7-4.5,1.4
		c-0.6,0.3-1.3,0.7-1.9,1.1c-4,2.7-6.3,7.2-6.3,12c0,8.7,5.9,15.3,13.8,15.3h42.3c9.2,0,16.7-7.5,16.7-16.8
		C99,57.2,94.5,50.9,87.8,48.5z"/>
	<path class="st0" d="M80.2,66.6c0-7.9-6.4-14.4-14.4-14.4v5c5.2,0,9.4,4.2,9.4,9.4H80.2z"/>
</g>
<g>
	<rect x="43.1" y="85.3" transform="matrix(0.3161 -0.9487 0.9487 0.3161 -51.4714 104.2793)" class="st0" width="7" height="5"/>
	<rect x="58.6" y="85.4" transform="matrix(0.3161 -0.9487 0.9487 0.3161 -40.884 119.0589)" class="st0" width="7" height="5"/>
	<rect x="74.9" y="85.4" transform="matrix(0.3148 -0.9492 0.9492 0.3148 -29.6953 134.634)" class="st0" width="7" height="5"/>
</g>
</svg>
