<?xml version="1.0" encoding="utf-8"?>
<!-- Generator: Adobe Illustrator 22.1.0, SVG Export Plug-In . SVG Version: 6.00 Build 0)  -->
<svg version="1.1" id="Layer_1" xmlns="http://www.w3.org/2000/svg" xmlns:xlink="http://www.w3.org/1999/xlink" x="0px" y="0px"
	 viewBox="0 0 100 100" style="enable-background:new 0 0 100 100;" xml:space="preserve">
<style type="text/css">
	.st0{fill:#FFFFFF;}
</style>
<g>
	<g>
		<g>
			<g>
				<g>
					<path class="st0" d="M82.2,91.4H54.9c-8.3,0-15.1-6.8-15.1-15.1c0-6.4,4-12,9.8-14.2c0.9-5.2,5.4-9.1,10.8-9.1
						c1.1,0,2.3,0.2,3.3,0.5c2.8-4.1,7.5-6.6,12.6-6.6c8.4,0,15.3,6.9,15.3,15.3c0,0.7-0.1,1.4-0.2,2.1c3.7,2.9,5.8,7.2,5.8,11.9
						C97.3,84.6,90.6,91.4,82.2,91.4z M54.5,64c0,1.2-0.8,2.2-1.9,2.5c-4.6,1.1-7.8,5.1-7.8,9.8c0,5.6,4.5,10.1,10.1,10.1h27.3
						c5.6,0,10.1-4.5,10.1-10.1c0-3.6-1.8-6.8-4.9-8.6c-0.9-0.6-1.4-1.7-1.1-2.8c0.2-0.9,0.3-1.8,0.3-2.6c0-5.7-4.6-10.3-10.3-10.3
						c-3.9,0-7.6,2.3-9.3,5.9c-0.3,0.6-0.9,1.1-1.5,1.3c-0.7,0.2-1.4,0.1-2-0.3c-0.9-0.6-2-0.9-3.1-0.9C57.2,58,54.5,60.7,54.5,64z"
						/>
				</g>
			</g>
		</g>
	</g>
	<g>
		<g>
			<g>
				<g>
					<path class="st0" d="M15.5,49.4l-4.3-2.6c3-4.9,8.6-7.3,14.1-6.2c3.2-3.5,8.5-4.3,12.6-1.7c1.5,1,2.8,2.3,3.6,3.9L37.1,45
						c-0.4-0.8-1-1.5-1.8-2c-1.1-0.7-2.5-0.9-3.8-0.6c-1.3,0.3-2.4,1.1-3.1,2.2c0,0,0,0,0,0.1c-0.6,1-1.8,1.4-2.9,1
						C21.7,44.5,17.6,46,15.5,49.4z"/>
				</g>
			</g>
		</g>
	</g>
	<g>
		<g>
			<g>
				<g>
					<path class="st0" d="M34.4,78.8c-7.1,0-14-2-20-5.9c-4.7-3.1-8.5-7-11.4-11.8c-0.6-1-0.4-2.2,0.3-3c0.8-0.8,2-1,3-0.5
						c14.1,7.7,32.1,3.2,40.9-10.3C54.2,36.6,54,23,46.7,12.6c-0.6-0.9-0.6-2.2,0.1-3c0.7-0.9,1.9-1.1,3-0.7
						c1.6,0.7,3.2,1.6,4.6,2.5C65.3,18.5,71.6,30.9,71,43.8l-5-0.2c0.4-9.7-3.6-19-10.8-25.3C59,28.7,57.7,40.4,51.5,50
						C43,63,27.4,68.8,12.9,65.4c1.3,1.2,2.7,2.3,4.2,3.2c5.3,3.5,11.5,5.3,17.8,5.1l0.1,5C34.8,78.8,34.6,78.8,34.4,78.8z"/>
				</g>
			</g>
		</g>
	</g>
</g>
</svg>
