<?xml version="1.0" encoding="utf-8"?>
<!-- Generator: Adobe Illustrator 22.1.0, SVG Export Plug-In . SVG Version: 6.00 Build 0)  -->
<svg version="1.1" id="Layer_1" xmlns="http://www.w3.org/2000/svg" xmlns:xlink="http://www.w3.org/1999/xlink" x="0px" y="0px"
	 viewBox="0 0 100 100" style="enable-background:new 0 0 100 100;" xml:space="preserve">
<style type="text/css">
	.st0{fill:#FFFFFF;}
</style>
<g>
	<polygon class="st0" points="52.5,63.8 47.5,63.8 47.5,79.2 37.4,84.8 39.8,89.2 47.5,84.9 47.5,91.3 52.5,91.3 52.5,84.9 
		60.2,89.2 62.6,84.8 52.5,79.2 	"/>
	<polygon class="st0" points="47.5,36.2 52.5,36.2 52.5,20.7 62.6,15.1 60.2,10.7 52.5,15 52.5,8.7 47.5,8.7 47.5,15 39.8,10.7 
		37.4,15.1 47.5,20.7 	"/>
	<path class="st0" d="M74.8,61.1l-7.9,2.3L59.5,56c1-1.7,1.7-3.6,1.7-5.7l0-0.3c0-2.2-0.7-4.3-1.8-6l7.4-7.4l7.9,2.3l1.4-4.8
		l-5.3-1.5l2.6-2.6L70,26.4L67.4,29l-1.5-5.3l-4.8,1.4l2.3,7.9l-7.4,7.4c-1.7-1.1-3.8-1.7-5.9-1.7c-2.2,0-4.3,0.6-6,1.7L36.6,33
		l2.3-7.9L34,23.7L32.5,29L30,26.4L26.4,30l2.5,2.5L23.7,34l1.4,4.8l7.9-2.3l7.4,7.4c-1.1,1.7-1.7,3.8-1.7,6c0,2.2,0.6,4.2,1.7,5.9
		L33,63.4l-7.9-2.3l-1.4,4.8l5.3,1.5l-2.5,2.5l3.5,3.5l2.5-2.5l1.5,5.3l4.8-1.4l-2.3-7.9l7.4-7.4c1.7,1.1,3.8,1.8,6,1.8
		c2.2,0,4.3-0.6,6-1.7l7.3,7.3l-2.3,7.9l4.8,1.4l1.5-5.3l2.6,2.6l3.5-3.5l-2.6-2.6l5.3-1.5L74.8,61.1z M50,56.3
		c-3.5,0-6.3-2.8-6.3-6.3s2.8-6.3,6.3-6.3s6.3,2.8,6.3,6.3l0,0.2C56.2,53.5,53.4,56.3,50,56.3z"/>
	<polygon class="st0" points="91.3,47.5 85,47.5 89.3,39.8 84.9,37.4 79.3,47.5 63.8,47.5 63.8,52.5 79.3,52.5 84.9,62.6 89.3,60.2 
		85,52.5 91.3,52.5 	"/>
	<polygon class="st0" points="36.2,47.5 20.8,47.5 15.2,37.4 10.8,39.8 15.1,47.5 8.7,47.5 8.7,52.5 15.1,52.5 10.8,60.2 15.2,62.6 
		20.8,52.5 36.2,52.5 	"/>
</g>
</svg>
