<?xml version="1.0" encoding="utf-8"?>
<!-- Generator: Adobe Illustrator 22.1.0, SVG Export Plug-In . SVG Version: 6.00 Build 0)  -->
<svg version="1.1" id="Layer_1" xmlns="http://www.w3.org/2000/svg" xmlns:xlink="http://www.w3.org/1999/xlink" x="0px" y="0px"
	 viewBox="0 0 100 100" style="enable-background:new 0 0 100 100;" xml:space="preserve">
<style type="text/css">
	.st0{fill:#FFFFFF;}
</style>
<g>
	<path class="st0" d="M49.9,30.8c-11.2,0-20.2,9.1-20.2,20.2c0,11.2,9.1,20.2,20.2,20.2c11.2,0,20.2-9.1,20.2-20.2
		C70.2,39.8,61.1,30.8,49.9,30.8z M49.9,66.2c-8.4,0-15.2-6.8-15.2-15.2c0-8.4,6.8-15.2,15.2-15.2c8.4,0,15.2,6.8,15.2,15.2
		C65.2,59.4,58.3,66.2,49.9,66.2z"/>
	<rect x="47.4" y="10.1" class="st0" width="5" height="8.8"/>
	<rect x="22.4" y="20.6" transform="matrix(0.7071 -0.7071 0.7071 0.7071 -10.3836 24.9165)" class="st0" width="5" height="8.8"/>
	<rect x="10.1" y="47.6" class="st0" width="8.8" height="5"/>
	<rect x="20.6" y="72.6" transform="matrix(0.7071 -0.7071 0.7071 0.7071 -45.7945 39.6727)" class="st0" width="8.8" height="5"/>
	<rect x="47.6" y="81" class="st0" width="5" height="8.8"/>
	<rect x="72.6" y="70.6" transform="matrix(0.7071 -0.7071 0.7071 0.7071 -31.0381 75.0807)" class="st0" width="5" height="8.8"/>
	<rect x="81" y="47.4" class="st0" width="8.8" height="5"/>
	<rect x="70.6" y="22.4" transform="matrix(0.7071 -0.7071 0.7071 0.7071 4.3737 60.3284)" class="st0" width="8.8" height="5"/>
</g>
</svg>
