<?xml version="1.0" encoding="utf-8"?>
<!-- Generator: Adobe Illustrator 22.1.0, SVG Export Plug-In . SVG Version: 6.00 Build 0)  -->
<svg version="1.1" id="Layer_1" xmlns="http://www.w3.org/2000/svg" xmlns:xlink="http://www.w3.org/1999/xlink" x="0px" y="0px"
	 viewBox="0 0 100 100" style="enable-background:new 0 0 100 100;" xml:space="preserve">
<style type="text/css">
	.st0{fill:#FFFFFF;}
</style>
<g>
	<path class="st0" d="M14.8,45.8c0-6.1,4.9-10.9,11.1-10.9c0.2,0,0.4,0,0.6,0c0.8,0,1.6-0.3,2.1-0.9c0.5-0.6,0.7-1.4,0.5-2.2
		c-0.2-0.7-0.3-1.4-0.3-2.1c0-3.6,2.1-6.7,5.5-8L32.4,17c-5.2,2.1-8.6,7-8.6,12.7c0,0.1,0,0.2,0,0.4c-7.9,1-14,7.7-14,15.7
		c0,9.4,6.4,16.6,14.9,16.6h9.6v-5h-9.6C18.3,57.3,14.8,51.4,14.8,45.8z"/>
	<path class="st0" d="M77.1,26.7C76.5,15.9,67.6,7.3,56.6,7.3c-9.6,0-17.8,6.5-19.9,15.8l4.9,1.1c1.6-7,7.8-12,15.1-12
		c8.5,0,15.5,6.9,15.5,15.5c0,2,1.2,3.2,2.5,3.4c5.7,1.5,9.9,6.9,9.9,12.9c0,7.3-5.9,13.3-13.1,13.3H67v5h4.3
		c10,0,18.1-8.2,18.1-18.3C89.4,36.2,84.4,29.2,77.1,26.7z"/>
	<path class="st0" d="M52.5,32v5c5.5,0,10,4.5,10,10h5C67.6,38.7,60.8,32,52.5,32z"/>
	<polygon class="st0" points="53.7,47 43.3,47 38.2,70.5 49.5,70.5 49.3,92.2 61,62.5 49,62.5 	"/>
</g>
</svg>
